Coordinates
version=1
nRows=5
nColumns=42
inDegrees=yes

Units are S.I. units (second, meters, Newtons, ...)
If the header above contains a line with 'inDegrees', this indicates whether rotational values are in degrees (yes) or radians (no).

endheader
time	pelvis_tilt	pelvis_list	pelvis_rotation	pelvis_tx	pelvis_ty	pelvis_tz	hip_flexion_r	hip_adduction_r	hip_rotation_r	knee_angle_r	knee_adduction_r	knee_angle_r_beta	ankle_angle_r	subtalar_angle_r	mtp_angle_r	hip_flexion_l	hip_adduction_l	hip_rotation_l	knee_angle_l	knee_adduction_l	knee_angle_l_beta	ankle_angle_l	subtalar_angle_l	mtp_angle_l	lumbar_extension	lumbar_bending	lumbar_rotation	arm_flex_r	arm_add_r	arm_rot_r	elbow_flex_r	pro_sup_r	wrist_flex_r	wrist_dev_r	arm_flex_l	arm_add_l	arm_rot_l	elbow_flex_l	pro_sup_l	wrist_flex_l	wrist_dev_l
      2.19000000	      2.01912169	      3.46638033	     -4.32511389	     -0.86851460	      0.94352257	      0.01487379	      3.07144778	     -2.54792499	     -4.08908136	     11.69664541	      4.17919705	      0.20414497	      3.94151873	     -0.77735368	     -7.50090421	      9.58647395	     -1.52490759	     -0.59537463	     48.75131719	      9.33609583	      0.85087100	     -2.25377338	    -19.24157759	     -7.50090421	    -13.60797338	     -4.45011751	     -2.86137372	      0.39435165	    -10.97895272	      4.93563398	     30.61513245	     90.00000001	      0.00000000	      0.00000000	     -8.31425262	     -9.61378436	     -7.62694602	     25.11727881	     90.00000001	      0.00000000	      0.00000000
      2.20000000	      1.98097457	      3.52831916	     -4.70301381	     -0.85763741	      0.94361867	      0.01559744	      2.22184041	     -2.55757153	     -4.50391452	     11.30455216	      3.94211528	      0.19730166	      5.24668398	      2.07506866	     -7.50083433	     10.79479217	     -1.63009419	     -0.20236463	     47.56190786	      9.91924666	      0.83011189	     -2.02801621	    -19.28966997	     -7.50083433	    -13.57347833	     -4.64508274	     -2.50313342	     -0.04637177	    -11.85037741	      5.98586653	     33.41715895	     90.00000001	      0.00000000	      0.00000000	     -9.46582809	     -8.94166153	     -9.93232031	     25.78023512	     90.00000001	      0.00000000	      0.00000000
      2.21000000	      1.93314670	      3.55957868	     -5.12920001	     -0.84698387	      0.94349375	      0.01632379	      1.41538084	     -2.51790857	     -4.33694115	     10.95010296	      3.77559701	      0.19111535	      5.72919079	      2.52080990	     -7.50082053	     12.02370843	     -1.74962150	     -0.31953349	     46.30954982	     10.04910107	      0.80825412	     -1.98731613	    -19.29049635	     -7.50082053	    -13.52139933	     -4.80236841	     -2.02036218	      0.46603509	    -12.21777167	      5.98724988	     34.01848924	     90.00000001	      0.00000000	      0.00000000	    -10.35329936	     -8.62415965	    -10.19267440	     25.67581671	     90.00000001	      0.00000000	      0.00000000
      2.22000000	      1.84643326	      3.46761372	     -5.48798479	     -0.83639465	      0.94296498	      0.01693643	      0.73708780	     -2.39730111	     -4.57948995	     10.81080704	      3.65490651	      0.18868418	      5.95372790	      2.63940438	     -7.50081344	     13.35966448	     -2.02113976	     -0.64317199	     45.17605135	      9.97008075	      0.78847084	     -1.91500774	    -19.31395956	     -7.50081344	    -13.43740855	     -4.79600807	     -1.50329936	      1.08032092	    -12.62056666	      5.89967723	     34.48586629	     90.00000001	      0.00000000	      0.00000000	    -11.17718471	     -8.34050285	    -10.28015150	     25.55757359	     90.00000001	      0.00000000	      0.00000000
      2.23000000	      1.95968137	      3.50307149	     -5.91788105	     -0.82558423	      0.94258385	      0.01757706	     -0.35501972	     -2.40849928	     -3.95746918	     10.26626234	      3.56814498	      0.17918008	      7.03701430	      3.58420666	     -7.50079387	     14.08609125	     -2.08267399	     -0.59955633	     43.14153685	     10.10902034	      0.75296186	     -2.12714514	    -19.33696073	     -7.50079387	    -13.57852964	     -4.96317896	     -1.05454977	      1.16246611	    -13.13256717	      6.00919426	     36.04142115	     90.00000001	      0.00000000	      0.00000000	    -12.19910484	     -7.89676403	    -11.15864155	     26.05815291	     90.00000001	      0.00000000	      0.00000000
